# xmcd
#
# Track frame offsets: 
#        182
#        10470
#        23225
#        35860
#        46035
#        55727
#        67192
#        76760
#        88660
#        101615
#        111387
#        123727
#        132590
#        143565
#        154380
#        161987
#
# Disc length: 2316 seconds
#
# Revision: 1
# Processed by: cddbd v1.5.2PL0 Copyright (c) Steve Scherf et al.
# Submitted via: ExactAudioCopy v0.99pb4
#
DISCID=e5090a10
DTITLE=Carl Perkins - Original Sun Greatest Hits
DYEAR=1986
DGENRE=Rockabilly
TTITLE0=Blue Suede Shoes
TTITLE1=Honey Don't
TTITLE2=Boppin' The Blues
TTITLE3=Everybody's Trying To Be My Baby
TTITLE4=Movie Magg
TTITLE5=Sure To Fall
TTITLE6=All Mama's Children
TTITLE7=Perkin's Wiggle
TTITLE8=Put You Cat Clothes On
TTITLE9=Matchbox
TTITLE10=Your True Love
TTITLE11=Lend Me Your Comb
TTITLE12=Dixie Fried
TTITLE13=You Can Do No Wrong
TTITLE14=Glad All Over
TTITLE15=Gone, Gone, Gone
EXTD=
EXTT0=
EXTT1=
EXTT2=
EXTT3=
EXTT4=
EXTT5=
EXTT6=
EXTT7=
EXTT8=
EXTT9=
EXTT10=
EXTT11=
EXTT12=
EXTT13=
EXTT14=
EXTT15=
PLAYORDER=
